<?xml version="1.0" encoding="UTF-8" standalone="no"?>
<svg
   xmlns:dc="http://purl.org/dc/elements/1.1/"
   xmlns:cc="http://creativecommons.org/ns#"
   xmlns:rdf="http://www.w3.org/1999/02/22-rdf-syntax-ns#"
   xmlns:svg="http://www.w3.org/2000/svg"
   xmlns="http://www.w3.org/2000/svg"
   xmlns:sodipodi="http://sodipodi.sourceforge.net/DTD/sodipodi-0.dtd"
   xmlns:inkscape="http://www.inkscape.org/namespaces/inkscape"
   viewBox="0 0 512 512"
   style="height: 512px; width: 512px;"
   version="1.1"
   id="svg8"
   sodipodi:docname="d4.svg"
   inkscape:version="0.92.4 (5da689c313, 2019-01-14)">
  <metadata
     id="metadata14">
    <rdf:RDF>
      <cc:Work
         rdf:about="">
        <dc:format>image/svg+xml</dc:format>
        <dc:type
           rdf:resource="http://purl.org/dc/dcmitype/StillImage" />
        <dc:title></dc:title>
      </cc:Work>
    </rdf:RDF>
  </metadata>
  <defs
     id="defs12" />
  <sodipodi:namedview
     pagecolor="#ffffff"
     bordercolor="#666666"
     borderopacity="1"
     objecttolerance="10"
     gridtolerance="10"
     guidetolerance="10"
     inkscape:pageopacity="0"
     inkscape:pageshadow="2"
     inkscape:window-width="1366"
     inkscape:window-height="705"
     id="namedview10"
     showgrid="false"
     inkscape:zoom="1.3037281"
     inkscape:cx="99.562815"
     inkscape:cy="171.35238"
     inkscape:window-x="-8"
     inkscape:window-y="-8"
     inkscape:window-maximized="1"
     inkscape:current-layer="svg8"
     showguides="true" />
  <path
     style="fill:#ffffff;stroke-width:1.53406215"
     d="m 380.61462,403.37869 c -9.28108,-5.39906 -17.34591,-9.82136 -17.92186,-9.82735 -0.57594,-0.006 -1.47539,1.33833 -1.99877,2.98737 -0.82087,2.58632 -1.47581,2.75939 -4.7672,1.25973 -3.14299,-1.43204 -3.6516,-2.48519 -2.88524,-5.97438 0.78971,-3.59552 0.23394,-4.59601 -3.67624,-6.61805 -6.32257,-3.26953 -6.92135,-4.77349 -3.92201,-9.85097 l 2.59038,-4.38517 6.56513,3.66932 6.56514,3.66932 6.42405,-11.63752 c 3.53323,-6.40063 6.87414,-11.40781 7.42424,-11.12706 0.5501,0.28076 2.72601,1.39148 4.83535,2.46828 2.53619,1.29471 7.65646,8.99641 15.1175,22.73916 l 11.28235,20.78134 -2.69448,5.97528 c -1.48196,3.28641 -3.45254,5.91046 -4.37907,5.83122 -0.92652,-0.0792 -9.2782,-4.56147 -18.55927,-9.96052 z m 6.70459,-21.27244 c -4.53126,-8.05422 -8.64669,-14.64422 -9.14539,-14.64444 -1.67476,-7.4e-4 -9.597,15.92948 -8.17184,16.43212 0.77454,0.27318 6.58572,3.5244 12.91373,7.22492 6.32801,3.70053 11.76122,6.48146 12.07381,6.17984 0.31259,-0.30162 -3.13905,-7.13821 -7.67031,-15.19244 z"
     id="path993"
     inkscape:connector-curvature="0" />
  <path
     d="M0 0h512v512H0z"
     id="path2"
     fill-opacity="1"
     fill="#000" />
  <path
     style="fill:#ffffff;stroke-width:1.53406215"
     d="m 119.37404,417.11274 c -11.09665,-5.58552 -16.40235,-24.44753 -9.38594,-33.36745 7.95406,-10.11195 18.68247,-11.06628 36.47274,-3.24435 11.82229,5.19796 15.54992,6.28406 15.54992,4.53071 0,-0.46118 -3.18688,-6.36362 -7.08196,-13.11653 -3.89507,-6.75291 -6.82897,-12.49503 -6.51976,-12.76026 2.57055,-2.20495 8.02053,-4.00191 8.96983,-2.95752 0.64623,0.71097 5.75472,9.23144 11.3522,18.93438 9.25742,16.04727 9.94173,17.81502 7.57151,19.55929 -4.63734,3.41266 -16.80612,2.24387 -29.37689,-2.82159 -13.66201,-5.50518 -19.78935,-6.09121 -25.38091,-2.42749 -3.00376,1.96814 -4.02182,3.9252 -4.02182,7.7313 0,7.28186 4.40351,10.843 11.92134,9.64085 5.30726,-0.84866 6.11522,-0.51132 8.51817,3.55656 2.52849,4.28039 2.52375,4.56426 -0.0998,5.96832 -5.68555,3.04281 -13.34406,3.36334 -18.48867,0.77378 z"
     id="path991"
     inkscape:connector-curvature="0" />
  <g
     class=""
     transform="translate(60,100)"
     id="g6"
     style="touch-action: none;">
    <path
       d="m 318.19868,267.78873 16.9787,29.51802 -25.5157,-14.7315 z M -32.680081,356.00857 198.26992,-44.008567 429.20508,356 Z M 194.12219,72.84151 l -0.73678,47.16214 13.80826,0.2334 1.00825,-68.352353 -11.22038,-0.175734 a 11.278,11.278 0 0 1 -0.55953,2.731137 11.822,11.822 0 0 1 -2.70938,4.862798 12.534,12.534 0 0 1 -6.64277,3.485601 59.3,59.3 0 0 1 -8.90338,0.715115 l -0.13799,9.151007 z m 105.09449,227.82501 3.87,-6.70304 37.00873,21.367 7.547,-13.07179 -23.38305,-42.52937 -10.17493,-5.8745 -13.536,23.44503 -12.74789,-7.36 -6.581,11.39863 12.74789,7.36 -3.87,6.70304 9.10886,5.259 z m -249.796599,7.7604 q 6.920683,11.87302 18.515062,11.40097 6.074443,-0.25725 13.776918,-4.37232 l -6.576996,-11.28431 a 22.677,22.677 0 0 1 -8.014918,2.91624 q -5.065146,0.39309 -8.155231,-4.90472 a 8.453,8.453 0 0 1 -0.984148,-7.39941 10.868,10.868 0 0 1 5.02794,-5.71465 14.08,14.08 0 0 1 10.590474,-1.31724 99.728,99.728 0 0 1 14.282008,5.59684 q 11.993406,5.40481 19.34889,4.45073 a 32.144,32.144 0 0 0 13.20373,-4.03352 l -23.611563,-40.51357 -10.229729,5.95841 15.027312,25.79792 a 15.203,15.203 0 0 1 -4.803294,-0.83444 q -2.326452,-0.80047 -7.965828,-3.37278 l -6.009787,-2.73075 a 45.149,45.149 0 0 0 -12.463544,-4.05851 21.518,21.518 0 0 0 -13.940278,2.86927 q -8.555515,4.98859 -10.518839,13.55917 -1.964191,8.57008 3.497429,17.97027 z"
       id="path4"
       inkscape:connector-curvature="0"
       style="fill:#ffffff;fill-opacity:1" />
  </g>
  <path
     style="fill:#ffffff"
     id="path1019"
     d="m 352.62831,323.95457 c -0.9345,1.78925 0.0906,4.17943 0.66727,5.96732 0.52029,1.21176 1.12581,2.63507 2.21093,3.4724 0.40767,0.31458 0.88865,0.52105 1.32191,0.79932 0.21846,0.0773 0.46053,0.10647 0.65539,0.2319 0.90656,0.58355 1.63772,1.49382 2.52639,2.11429 1.99224,1.39098 -0.39889,-0.64546 1.83308,1.37389 0.26733,0.13811 0.52207,0.30394 0.80198,0.41434 1.49217,0.58853 0.43146,-0.1009 2.09377,0.71249 1.45473,0.71181 2.84501,1.6212 4.2801,2.37924 3.46181,1.34987 7.01018,2.40968 10.63488,3.21701 3.0989,1.20696 5.63064,3.47627 7.83976,5.90955 1.19067,1.1929 2.24652,2.59408 3.68676,3.4956 1.69687,1.25837 3.25407,2.69068 4.7934,4.13367 0.27248,0.26092 0.52604,0.54315 0.81744,0.78276 0.22907,0.18837 0.51421,0.30224 0.7383,0.4965 1.27799,1.10783 2.37662,2.46845 3.47598,3.74576 1.80205,1.37943 2.92,3.30173 4.20403,5.11957 1.04346,1.53953 2.34772,2.82245 3.65205,4.12964 1.04636,1.20614 2.2257,2.27875 3.29277,3.45669 1.0573,1.344 2.17159,2.63799 3.32767,3.89753 1.35618,0.99041 2.59334,2.12261 4.15336,2.78236 1.65148,1.1143 3.04411,2.56956 4.7989,3.52287 2.03493,1.2283 3.71785,2.93339 4.97196,4.93921 0.9927,1.36216 1.11073,3.29567 2.30027,4.52373 0.5164,0.53311 0.43947,0.26755 0.55742,-0.16657 -10.22829,-21.03878 -0.43737,-2.69341 -54.68662,31.09139 -0.0741,0.0461 0.22618,0.1135 0.25975,0.0329 0.0738,-0.17702 0.002,-0.38601 -0.0341,-0.57432 -0.07,-0.36333 -0.5778,-1.65216 -0.63089,-1.79382 -0.62906,-2.18493 -1.83096,-4.10731 -3.22697,-5.87849 -1.31828,-1.67954 -2.64496,-3.34444 -4.02866,-4.96999 -1.77098,-2.01772 -3.25724,-4.27601 -5.13574,-6.19708 -2.16039,-2.47413 -4.774,-4.44564 -7.26285,-6.56006 -2.35209,-1.89821 -4.92898,-3.44758 -7.42057,-5.15465 -0.42983,-0.35399 -0.8361,-0.73871 -1.2895,-1.06196 -0.38808,-0.27668 -0.83369,-0.46475 -1.2278,-0.73277 -0.71724,-0.48777 -1.84853,-1.46338 -2.59982,-1.92909 -0.80607,-0.49966 -1.67975,-0.8817 -2.50466,-1.34961 -2.29629,-0.83374 -4.21048,-2.29809 -6.08366,-3.82003 -1.05025,-0.42236 -1.78508,-1.21621 -2.66292,-1.8775 -0.27856,-0.20985 -0.61776,-0.329 -0.8991,-0.53512 -0.74251,-0.544 -1.41372,-1.17945 -2.1345,-1.75193 -0.37017,-0.28648 -0.72331,-0.59643 -1.11051,-0.85943 -0.65426,-0.44439 -1.38443,-0.76699 -2.05316,-1.18931 -1.08592,-0.68578 -2.06315,-1.485 -3.03903,-2.3149 -2.28238,-1.42822 0.84475,0.5794 -1.64002,-1.20707 -0.21687,-0.15593 -0.45399,-0.28383 -0.69536,-0.39824 -0.15225,-0.0722 -0.62507,-0.0734 -0.47986,-0.15881 54.55922,-32.10239 68.36427,-15.71835 54.31542,-32.12095 1.63052,2.61646 3.37082,5.19616 5.05257,7.79272 0.45351,0.56595 0.92717,1.11633 1.36052,1.69786 1.07497,1.44251 1.74918,2.63267 2.88091,4.03548 1.19733,1.48411 2.63775,2.76039 4.02507,4.05935 1.18046,1.27493 2.66613,2.2847 3.80731,3.59714 0.55622,0.63969 1.02133,1.3533 1.54215,2.02212 1.27399,1.81208 2.85088,3.39106 4.02888,5.26347 1.0873,1.08543 2.09976,2.2959 3.29884,3.26529 0.50081,0.40487 1.06554,0.72395 1.58666,1.10233 1.5253,1.28069 3.20121,2.30637 4.71601,3.60579 0.2376,0.13872 0.46272,0.30145 0.7128,0.41615 0.20884,0.0958 0.46729,0.0806 0.65597,0.21165 0.34923,0.24267 0.60002,0.60381 0.92026,0.88363 0.63018,0.55064 1.23824,1.14534 1.91488,1.63776 0.53502,0.65762 1.10086,1.40877 1.74917,1.96627 0.10374,0.0892 0.26173,0.0867 0.37965,0.15607 0.38218,0.22495 0.94778,0.70687 1.27134,0.96829 0.21913,0.10984 0.43826,0.21968 0.65739,0.32953 0,0 -52.44016,33.64667 -52.44016,33.64667 v 0 c -0.28404,-0.21879 -0.56809,-0.43759 -0.85214,-0.65638 -1.47401,-1.01054 -2.65876,-2.28601 -3.98407,-3.46042 -1.09323,-1.18109 -2.4285,-1.96026 -3.63664,-3.01967 -1.61459,-1.18439 -3.18203,-2.41053 -4.67485,-3.74803 -1.88154,-1.72972 -3.57047,-3.66541 -5.26382,-5.5766 -1.62859,-1.54721 -2.91306,-3.38438 -4.17819,-5.23419 -1.56547,-1.91385 -3.15762,-3.81246 -4.54043,-5.86606 -2.43245,-3.6053 -4.83075,-7.23046 -7.76969,-10.45421 -2.10132,-2.28899 -4.37267,-4.3592 -6.95656,-6.0944 -15.07947,-17.00603 -1.66608,-1.06872 53.35344,-33.46546 0.0715,-0.0421 -0.10531,0.15061 -0.09,0.23221 0.0308,0.16442 0.1142,0.32092 0.21826,0.45191 0.37716,0.47475 0.99613,0.725 1.3391,1.2311 1.83333,1.48503 3.79842,2.78757 5.65066,4.24683 2.02889,1.3623 4.17886,2.54599 6.09074,4.0673 1.78685,1.26443 3.70913,2.3073 5.44877,3.63146 2.48747,1.82363 5.00725,3.60684 7.56445,5.32975 2.60034,1.78027 5.20794,3.52036 7.43015,5.78491 2.72482,2.16986 5.29807,4.51527 7.80608,6.93156 2.06738,2.04505 3.85249,4.33823 5.93254,6.36773 1.43528,1.78045 3.20911,3.27989 4.3082,5.32447 1.4654,2.17147 2.47722,4.62587 3.95068,6.80246 0.48874,0.80249 1.0519,1.52009 1.60334,2.2772 0.20317,0.27893 0.87105,0.66777 0.58195,0.85619 -53.70713,35.00561 -41.80435,51.13385 -55.0063,31.54094 -0.82074,-1.88365 -1.17722,-4.01181 -2.5737,-5.59995 -1.06359,-1.1783 -2.23186,-2.22594 -3.61219,-3.03172 -1.59761,-1.18135 -3.31707,-2.17117 -4.97547,-3.26307 -1.68511,-1.30731 -3.40049,-2.60004 -4.84974,-4.17575 -1.27724,-1.26509 -2.56188,-2.52339 -3.80531,-3.82195 -1.02005,-1.11696 -1.94898,-2.31068 -2.92792,-3.46265 -1.45867,-1.5557 -2.58445,-3.35323 -3.91419,-5.01665 -1.17743,-1.61229 -2.40935,-3.17425 -3.69029,-4.70538 -1.46061,-1.59405 -3.36053,-2.71795 -4.84028,-4.30367 -1.54087,-1.3214 -3.16979,-2.51766 -4.8333,-3.67964 -1.5332,-1.35666 -2.69011,-3.02699 -3.96232,-4.6234 -1.42096,-1.70637 -3.02772,-2.95654 -5.24568,-3.46838 -3.68738,-1.3968 -7.4793,-2.49918 -11.1137,-4.02959 -2.95651,-1.26939 -6.11181,-2.15994 -8.69123,-4.15376 -0.92446,-0.59165 -1.76423,-1.27978 -2.6758,-1.89147 -0.55349,-0.37141 -1.15892,-0.66759 -1.6846,-1.07742 -0.32354,-0.25224 -0.60678,-0.55231 -0.91017,-0.82847 -2.02953,-2.02306 -3.67093,-4.48162 -4.59832,-7.20342 -1.11543,-2.42859 -1.8248,-4.98381 -3.01548,-7.37303 0,0 56.10922,-28.58907 56.10922,-28.58907 z"
     inkscape:connector-curvature="0" />
  <text
     xml:space="preserve"
     style="font-style:normal;font-variant:normal;font-weight:bold;font-stretch:normal;font-size:89.33333588px;line-height:1.25;font-family:sans-serif;-inkscape-font-specification:'sans-serif Bold';letter-spacing:0px;word-spacing:0px;fill:#000000;fill-opacity:1;stroke:none;"
     x="103.15537"
     y="-490.34012"
     id="text884-7-9"
     transform="rotate(121.50153)"><tspan
       sodipodi:role="line"
       id="tspan882-0-8"
       x="103.15537"
       y="-490.34012">2</tspan></text>
  <path
     style="fill:#ffffff"
     id="path1017"
     d="m 252.68995,240.74912 c 0.15801,-0.30675 0.38064,-0.58807 0.47402,-0.92025 0.83601,-2.97408 -0.17571,-7.62017 -0.82055,-10.53551 -1.64334,-5.68019 -2.76212,-11.50015 -4.34083,-17.19343 -0.96464,-3.33461 -2.11381,-6.60415 -3.16847,-9.90875 -0.47586,-2.25284 -1.37234,-4.38231 -2.10287,-6.56041 -0.65476,-1.79661 -1.24107,-3.61773 -1.93193,-5.40105 -0.678,-1.64161 -1.24262,-3.3224 -1.96116,-4.94746 -0.96811,-1.63907 -1.74131,-3.3498 -2.29974,-5.16782 -0.582,-1.57697 -1.40152,-3.04081 -1.9372,-4.63574 -0.65549,-2.0028 -1.33293,-4.00177 -1.91164,-6.029 -0.51819,-1.84105 -0.98391,-3.71743 -1.07238,-5.63474 -0.44939,-2.13528 -1.14919,-4.21955 -1.88365,-6.27335 -0.60541,-1.93725 -1.31065,-3.8414 -1.95901,-5.76426 -0.65981,-1.6047 -0.52298,-3.38282 -1.0766,-5.00239 -14.20418,-1.15462 -2.27402,-0.15789 37.24034,-19.85027 0.35247,-0.17565 0.0138,0.78819 0.0487,1.18045 0.0341,0.38346 0.10225,0.76316 0.15823,1.14404 0.28104,1.91225 0.18727,1.30681 0.59794,3.30455 0.8163,3.97011 2.00702,7.86344 3.21534,11.73092 1.89579,4.76658 3.53582,9.62747 5.32227,14.43535 1.38444,3.95121 2.34214,8.0333 3.59189,12.02551 0.92067,2.70783 1.74399,5.44792 2.66741,8.15374 0.71397,1.97596 1.1886,4.019 1.97791,5.96569 0.84086,1.97942 0.90965,4.15234 1.08372,6.26431 0.37521,2.30679 0.714,4.6137 1.33256,6.86969 0.55207,2.28548 1.86731,4.22135 2.8749,6.30612 -17.91192,13.33691 -33.91424,34.67563 -39.14746,16.72871 -0.2866,-0.98285 -0.50817,-1.98357 -0.77576,-2.97176 -0.84581,-2.31031 -1.23268,-4.76368 -2.36032,-6.96284 -1.44741,-1.91316 -2.51262,-4.0441 -3.51669,-6.21483 -1.61076,-3.24599 -2.56788,-6.70673 -3.60303,-10.15945 -0.89096,-3.02586 -1.89989,-6.015 -2.79055,-9.04054 -0.77615,-2.73648 -1.5234,-5.48313 -2.37603,-8.19712 -0.70265,-2.03051 -1.1746,-4.11873 -1.42591,-6.24981 -0.15481,-1.63876 -0.0713,-3.25872 -0.30082,-4.88854 -0.22904,-1.66805 -0.36639,-3.32314 -0.72727,-4.9694 -0.2454,-1.53011 -0.58471,-3.03504 -0.90713,-4.55012 -0.20654,-1.268 -0.36587,-2.5305 -0.63281,-3.78774 0,0 37.18045,-19.87773 37.18045,-19.87773 v 0 c 0.23963,1.2849 0.65571,2.5271 0.67523,3.84383 0.22429,1.52472 0.7548,2.97107 0.86294,4.51152 0.30066,1.73591 0.67048,3.45024 0.73227,5.21853 0.24646,1.72361 0.70907,3.38813 0.50566,5.14693 0.007,1.91806 0.0984,3.83909 0.55249,5.71224 0.69529,2.77124 1.53487,5.50895 2.28877,8.26477 0.8025,3.08057 1.66527,6.14472 2.50625,9.21546 0.12526,0.50599 0.70977,2.90646 0.87624,3.42615 0.65654,2.04954 1.73225,3.9422 2.59691,5.90427 1.12821,2.12436 2.75986,3.9076 3.93504,6.00769 1.18003,2.53005 1.39821,5.0601 2.18892,7.70629 0.50832,1.32211 0.51936,1.3869 1.04009,2.61566 0.11848,0.27958 0.20811,0.57472 0.36549,0.83441 0.0716,0.11818 0.28103,0.41274 0.30822,0.27725 0.0551,-0.2746 0.0444,-0.95258 -0.20011,-0.81605 -12.31645,6.87646 -24.36512,14.22192 -36.54768,21.33288 0.25456,0.2574 0.42996,0.63187 0.76367,0.77219 0.1821,0.0766 0.27781,-0.30484 0.0137,-1.23085 -0.39098,-1.37087 -0.92726,-2.70939 -1.30683,-4.08557 -0.72487,-2.40612 -1.93238,-4.6511 -2.01299,-7.21686 -0.30225,-1.78911 -0.26931,-3.62853 -0.82725,-5.372 -0.66248,-2.07877 -1.26204,-4.16537 -1.6559,-6.31362 -0.51645,-1.72852 -0.22816,-0.8564 -0.87065,-2.61444 -0.61579,-1.94539 -0.82904,-4.00458 -1.53982,-5.92645 -0.88475,-4.0456 -1.64278,-8.12165 -2.87346,-12.08333 -1.52683,-4.87159 -2.9938,-9.77374 -5.26958,-14.36417 -0.0534,-0.12669 -1.75521,-4.15264 -1.82461,-4.34772 -0.8658,-2.43379 -1.39439,-4.99628 -2.22367,-7.44391 -0.41818,-1.45073 -0.91831,-2.85456 -1.46698,-4.26116 -0.10656,-0.27317 -0.60416,-0.65684 -0.35185,-0.80621 37.16863,-22.00433 34.89879,-34.97387 37.22163,-20.26276 0.19974,1.62635 0.67704,3.19012 0.79405,4.83028 0.46058,1.94401 1.0933,3.85513 1.75591,5.73691 0.62648,2.18624 1.30152,4.35054 2.11779,6.47424 0.14231,0.40037 0.33456,0.78636 0.42692,1.20112 0.0583,0.2619 0.009,0.5366 0.0198,0.80472 0.0466,1.18641 0.16572,2.37265 0.45827,3.52624 0.5651,1.89913 1.09975,3.80147 1.84246,5.64018 0.72046,1.59982 1.37628,3.22568 2.13852,4.80909 0.55528,1.6433 0.85598,3.35805 1.91583,4.80208 0.80026,1.66425 1.61042,3.32209 2.152,5.09102 0.78267,1.90147 1.20217,3.90291 1.85314,5.84934 0.62819,2.30421 1.85879,4.43198 2.12959,6.82734 0.58649,3.55074 1.36027,7.07265 2.06564,10.6011 0.9724,5.79773 1.78946,11.66456 4.06418,17.13562 0.54559,1.73485 1.17661,3.44314 1.68151,5.19026 0.65669,2.27237 0.75597,4.6668 1.60824,6.88672 0,0 -38.22188,18.534 -38.22188,18.534 z"
     inkscape:connector-curvature="0" />
  <text
     xml:space="preserve"
     style="font-style:normal;font-variant:normal;font-weight:bold;font-stretch:normal;font-size:89.33333588px;line-height:1.25;font-family:sans-serif;-inkscape-font-specification:'sans-serif Bold';letter-spacing:0px;word-spacing:0px;fill:#000000;fill-opacity:1;stroke:none;"
     x="228.33899"
     y="218.57628"
     id="text884"><tspan
       sodipodi:role="line"
       id="tspan882"
       x="228.33899"
       y="218.57628">3</tspan></text>
  <path
     style="fill:#ffffff"
     id="path1021"
     d="m 187.39518,322.73338 c -0.43409,3.2259 0.18751,6.35318 0.84185,9.49753 0.78206,3.15631 2.16478,6.11427 3.27332,9.16331 0.50893,2.07793 1.43803,4.00868 2.06253,6.05108 0.49915,1.70518 0.6451,3.47413 0.71448,5.24028 0.0388,1.54337 0.0238,3.08745 0.0175,4.63112 0.21336,2.10808 -0.3788,4.19179 -1.18619,6.12072 -0.49139,0.8164 -0.41394,1.81352 -0.73664,2.68384 -0.10616,0.28631 -0.33378,0.5163 -0.44535,0.80054 -1.42884,3.64017 0.73347,-1.14669 -0.61678,1.77088 0.0181,0.64304 -0.5504,1.01387 -0.74225,1.55535 -0.13442,0.37939 -0.12399,0.79984 -0.25619,1.18 -0.32408,0.93194 -0.97788,1.85181 -1.51218,2.67297 -1.14985,0.33473 -1.92687,1.16156 -2.85692,1.83855 -0.37771,0.27493 -1.30111,0.72006 -1.71228,0.92773 -18.45069,11.97205 0.001,0.0238 -55.11329,31.79284 -0.39255,0.22627 -0.74806,0.5185 -1.15729,0.71298 -0.43216,0.20537 -0.92358,0.26849 -1.35282,0.47988 -1.47799,0.97176 -0.72378,0.54605 -2.25623,1.28837 17.44126,-10.01882 34.88251,-20.03764 52.32377,-30.05646 -0.54954,0.37123 -1.20289,0.56721 -1.75492,0.93371 -0.26949,0.17891 -0.4867,0.4278 -0.74955,0.61633 -0.37234,0.26706 -1.24675,0.75037 -1.64232,0.97531 -16.73403,14.52596 19.53514,-16.87877 -54.75851,31.90539 -16.95509,11.13338 69.57882,-41.66968 52.70832,-30.40854 -17.32494,11.56448 -33.89045,26.17293 -54.07444,31.32043 -19.482935,4.9687 65.36578,-45.46346 52.15216,-30.3085 -0.64184,0.17504 -0.8167,0.9202 -1.33913,1.22545 -17.98971,10.5113 -36.0594,20.88514 -54.10035,31.30825 -0.24227,0.13998 -0.99072,0.52008 -0.74827,0.38041 17.5408,-10.10524 70.15055,-40.44266 52.64431,-30.27765 -18.00581,10.45509 -36.09537,20.76526 -54.14306,31.1479 -2.00324,0.53964 -3.97306,0.29672 -5.92629,-0.27942 -3.27093,-1.30627 -5.519537,-4.01734 -7.910183,-6.48317 -2.919398,-3.18834 -5.469481,-6.71553 -7.979413,-10.23294 -2.128338,-2.9026 -3.917857,-6.0134 -5.698742,-9.13558 -1.662421,-2.4759 -2.246405,-4.77452 -2.664277,-7.66983 0.02283,-1.6871 -0.256819,-3.4651 0.08484,-5.13656 0.131595,-0.64378 0.441975,-1.23832 0.628908,-1.86827 6.761623,-20.81779 0.147563,-1.18204 54.438597,-32.50856 0.24988,-0.14419 0.56972,-0.0974 0.84769,-0.17464 1.31041,-0.36404 1.66388,-0.54747 3.09769,-0.53959 2.19857,0.0315 4.92132,-0.25247 6.97092,0.75695 0.58658,0.28889 1.09226,0.7191 1.63838,1.07865 3.15424,1.58073 5.99138,3.71529 8.76112,5.88306 2.29558,1.4831 4.31886,3.35311 6.31627,5.20794 1.83652,2.2011 4.03864,4.03929 6.26514,5.82877 2.37485,1.30125 4.0273,3.55341 6.19776,5.10896 1.62537,1.59022 3.40832,3.01211 5.0138,4.61615 1.56142,1.86326 2.35573,4.27406 3.33371,6.48019 0.72543,1.60801 1.28161,3.93307 3.00602,4.78335 1.71702,-0.0322 3.13142,2.42334 3.99949,3.657 1.1204,2.36827 1.68745,4.9226 2.02924,7.50434 0.26586,2.41683 0.12961,4.87307 -0.39267,7.24443 -107.758659,73.3863 -31.65443,32.47015 -56.64817,31.29061 -1.21318,-0.0573 -2.37994,-0.0466 -3.58777,-0.19572 -1.4587,-0.35446 -2.98877,0.0251 -4.45197,-0.13723 -0.57113,-0.0634 -1.12174,-0.25004 -1.68235,-0.37622 -2.66865,-0.60062 -1.23387,-0.31917 -3.94559,-0.78194 -2.04866,-0.0944 -4.0195,-0.59439 -6.0037,-1.05113 -1.59752,-0.36773 -3.18867,-0.58954 -4.77227,-1.01721 -0.86045,-0.54509 -1.9132,-0.53158 -2.82613,-0.91502 -4.89939,-2.05774 1.60885,0.31316 -2.68607,-1.35774 -0.72694,-0.28282 -1.48176,-0.48968 -2.21045,-0.76797 -2.35821,-1.00172 -4.711454,-2.18476 -6.52921,-4.04016 -0.419551,-0.42824 -0.763174,-0.92477 -1.14476,-1.38716 -1.619141,-2.11726 -2.542705,-4.50932 -2.827039,-7.13874 -0.364082,-1.75094 -0.954329,-3.46003 -1.456499,-5.18002 -0.09372,-0.34678 -0.187435,-0.69356 -0.281152,-1.04034 0,0 54.85524,-29.41993 54.85524,-29.41993 v 0 c 0.0373,0.26682 0.0746,0.53364 0.11197,0.80046 0.43782,1.9398 1.22634,3.79051 1.71237,5.72203 0.30833,1.4961 0.042,2.99818 0.80816,4.34416 1.55815,1.58436 3.81845,2.12975 5.84259,2.9024 0.47353,0.16875 0.95717,0.31142 1.42057,0.50624 0.37292,0.15677 1.79665,0.92441 2.23663,1.08638 1.13918,0.41936 2.36883,0.65892 3.52977,1.0141 3.20866,0.732 6.34065,1.79513 9.6619,1.97063 1.65907,0.14493 2.37208,0.26537 4.01176,0.19176 0.63892,-0.0287 1.27131,-0.15111 1.91021,-0.18027 1.51902,-0.0693 3.05973,0.158 4.56928,-0.16019 1.32267,-0.20959 3.11685,-0.22665 4.25939,-1.03838 0.30092,-0.21379 1.08972,-0.98088 0.77066,-0.79525 -17.54295,10.2062 -34.98494,20.58494 -52.47741,30.87742 1.91167,0.20183 2.90326,-0.36035 2.90003,-2.3975 0.0524,-1.43685 0.21992,-3.03448 -0.35225,-4.38467 -0.96539,-1.26366 -2.95048,-1.41756 -3.67144,-3.01426 -1.45088,-2.12029 -2.46164,-4.49309 -3.68756,-6.74647 -0.69928,-1.62921 -1.28572,-3.25988 -2.67483,-4.43313 -1.23928,-1.48606 -2.4296,-3.03814 -3.90085,-4.30535 -1.99014,-1.78702 -4.05343,-3.49162 -6.00286,-5.32297 -2.23841,-1.96122 -4.6539,-3.70274 -6.76377,-5.80766 -1.8834,-1.67972 -3.6276,-3.49891 -5.58704,-5.09474 -2.34933,-1.79947 -4.89702,-3.35782 -7.794828,-4.08708 -2.345099,0.22126 -4.70213,0.36004 -6.874324,1.37725 -0.963591,0.56144 -1.978439,1.00203 -2.945843,1.54644 -19.660942,11.0642 73.587515,-30.22534 51.177265,-30.38618 -1.90207,0.60958 0.42712,-0.25475 -1.30181,0.78907 -0.22498,0.13583 -0.51365,0.12847 -0.7497,0.24401 -0.91214,0.44644 -0.66594,1.33553 -0.93282,2.18288 -0.48486,1.79976 0.22155,3.7786 0.77744,5.49172 1.30863,3.05211 2.8602,5.96919 4.63865,8.77778 2.10474,3.2256 4.37612,6.37902 7.31672,8.90348 1.97396,1.47629 4.19678,2.9961 6.7568,2.09795 1.44517,-0.63905 2.86524,-1.24488 4.01072,-2.37856 -17.536,10.10616 -70.390413,39.98448 -52.60799,30.31849 18.30221,-9.94853 36.10907,-20.78249 54.16784,-31.16638 0.2488,-0.14306 1.00291,-0.55846 0.7547,-0.41439 -17.54027,10.18073 -35.11471,20.30269 -52.63107,30.52449 -0.46183,0.26951 1.99813,-0.70146 1.41981,-0.7466 19.16842,-8.62101 45.38297,-20.38162 54.48398,-32.23777 12.38224,-16.13071 -70.826803,39.96645 -52.78662,30.58182 18.46815,-9.60726 35.54507,-21.75662 54.07182,-31.25039 17.72081,-9.08078 -71.885237,39.68042 -51.635,30.03691 0.55556,-0.48288 0.9126,-0.83627 1.54646,-1.21732 0.28117,-0.16904 0.60867,-0.25669 0.87934,-0.44207 0.56171,-0.38473 0.94737,-0.99583 1.57705,-1.29799 18.00405,-10.35996 36.0081,-20.71992 54.01215,-31.07988 1.26965,-0.68883 0.59211,-0.36642 2.04122,-0.94894 0.40752,-0.21189 0.76263,-0.51404 1.16361,-0.73806 20.56203,-11.48763 -68.80086,40.9156 -49.60432,28.74543 0.49896,-0.40976 0.95057,-0.8334 1.54054,-1.11601 1.00366,-0.48078 0.66131,-0.0171 1.49824,-0.71374 0.20984,-0.17468 0.36279,-0.40981 0.56649,-0.59161 0.20557,-0.18348 0.43838,-0.33393 0.65757,-0.50089 1.21483,-0.0328 1.32061,-0.15085 2.41101,-0.46815 0.24161,-0.0703 0.55435,0.0374 0.74397,-0.12797 0.42072,-0.36702 0.2093,-1.19936 0.82885,-1.45549 0.13263,-0.26838 0.235,-0.55397 0.3979,-0.80512 0.14636,-0.22566 0.40469,-0.37295 0.5229,-0.61456 0.14612,-0.29867 0.10916,-0.66449 0.25018,-0.96561 0.1012,-0.21609 0.33008,-0.3485 0.45923,-0.54915 0.42395,-0.65861 0.37912,-0.8881 0.53683,-1.69229 0.19489,-0.68664 0.30344,-1.19882 0.62509,-1.83772 0.11793,-0.23425 0.31056,-0.42658 0.42229,-0.66386 0.27453,-0.58302 0.40091,-1.18404 0.8405,-1.68772 0.003,-1.51445 0.007,-3.02894 0.0288,-4.54326 0.0226,-1.4097 0.0801,-2.82109 0.0166,-4.23031 -0.19602,-2.12754 -0.92029,-4.10207 -1.48556,-6.14988 -0.38751,-3.28041 -1.37587,-6.4602 -2.26451,-9.63073 -0.89919,-2.93377 -1.61857,-5.97138 -3.02072,-8.70753 0,0 55.52193,-29.68456 55.52193,-29.68456 z"
     inkscape:connector-curvature="0"
     inkscape:transform-center-x="-65.197642"
     inkscape:transform-center-y="95.111855" />
  <text
     xml:space="preserve"
     style="font-style:normal;font-variant:normal;font-weight:bold;font-stretch:normal;font-size:89.33333588px;line-height:1.25;font-family:sans-serif;-inkscape-font-specification:'sans-serif Bold';letter-spacing:0px;word-spacing:0px;fill:#000000;fill-opacity:1;stroke:none;"
     x="-436.72119"
     y="-39.337132"
     id="text884-7"
     transform="rotate(-119.72099)"><tspan
       sodipodi:role="line"
       id="tspan882-0"
       x="-436.72119"
       y="-39.337132">4</tspan></text>
</svg>
