<?xml version="1.0" encoding="UTF-8" standalone="no"?>
<svg
   xmlns:dc="http://purl.org/dc/elements/1.1/"
   xmlns:cc="http://creativecommons.org/ns#"
   xmlns:rdf="http://www.w3.org/1999/02/22-rdf-syntax-ns#"
   xmlns:svg="http://www.w3.org/2000/svg"
   xmlns="http://www.w3.org/2000/svg"
   xmlns:sodipodi="http://sodipodi.sourceforge.net/DTD/sodipodi-0.dtd"
   xmlns:inkscape="http://www.inkscape.org/namespaces/inkscape"
   viewBox="0 0 512 512"
   style="height: 512px; width: 512px;"
   version="1.1"
   id="svg8"
   sodipodi:docname="d8.svg"
   inkscape:version="0.92.4 (5da689c313, 2019-01-14)">
  <metadata
     id="metadata14">
    <rdf:RDF>
      <cc:Work
         rdf:about="">
        <dc:format>image/svg+xml</dc:format>
        <dc:type
           rdf:resource="http://purl.org/dc/dcmitype/StillImage" />
        <dc:title></dc:title>
      </cc:Work>
    </rdf:RDF>
  </metadata>
  <defs
     id="defs12" />
  <sodipodi:namedview
     pagecolor="#ffffff"
     bordercolor="#666666"
     borderopacity="1"
     objecttolerance="10"
     gridtolerance="10"
     guidetolerance="10"
     inkscape:pageopacity="0"
     inkscape:pageshadow="2"
     inkscape:window-width="1366"
     inkscape:window-height="705"
     id="namedview10"
     showgrid="false"
     inkscape:zoom="0.92187498"
     inkscape:cx="100.39105"
     inkscape:cy="248.39541"
     inkscape:window-x="-8"
     inkscape:window-y="-8"
     inkscape:window-maximized="1"
     inkscape:current-layer="svg8" />
  <path
     d="M0 0h512v512H0z"
     id="path2"
     fill-opacity="1"
     fill="#000" />
  <path
     style="fill:#ffffff"
     id="path951"
     d="m 116.06787,160.85477 c 1.01651,3.13556 1.90297,6.27352 2.35787,9.54291 0.47929,3.61174 0.39305,7.26142 0.66503,10.88648 0.39543,4.18033 2.56188,7.77117 4.12095,11.57681 3.95535,11.65511 1.72369,5.07072 -18.36388,15.16061 0.037,-2.62907 0.93079,-5.02751 1.94057,-7.41333 1.597,-3.57427 3.03701,-7.22173 4.28678,-10.93157 1.14765,-3.3404 2.31258,-6.67711 3.37716,-10.04512 0.70567,-3.13383 1.40201,-6.24458 2.45744,-9.28398 1.16638,-2.91003 2.27544,-5.83735 3.66578,-8.6493 1.12701,-2.68516 3.04258,-4.89481 4.43125,-7.42296 3.43601,-8.65195 14.95354,-23.15003 24.57146,-14.2372 2.66765,3.1241 4.76681,6.54618 6.16818,10.4003 1.00914,3.52139 2.74698,6.77372 3.85074,10.26024 0.67207,2.7025 1.02115,5.51488 0.4567,8.25841 -7.87262,14.77865 -19.35044,15.64467 -29.69857,9.85881 -3.59264,-2.28987 -6.24992,-5.4415 -8.47646,-9.01041 -0.0535,-0.0719 -0.99347,-1.52568 -1.43433,-1.60783 -0.13283,-0.0248 -0.34184,0.40135 -0.22184,0.33925 6.60761,-3.41913 13.16991,-6.9254 19.73042,-10.43405 0.15288,-0.0818 -0.39023,0.0131 -0.49844,0.14855 -0.17645,0.22087 -0.17604,0.53728 -0.26407,0.80592 -0.40171,3.07673 -0.32428,6.19844 -0.3557,9.29599 0.11946,3.81658 -0.57117,7.58758 -0.99012,11.36704 -0.11909,3.45663 -1.06914,6.67983 -2.49837,9.79773 -1.18364,2.66976 -2.52512,5.23518 -3.51391,7.98608 -1.0938,2.98726 -2.08469,6.02635 -3.43417,8.91014 -5.082,8.75797 -16.20166,17.05612 -26.40331,14.81522 -3.679909,-1.95683 -4.846249,-5.52557 -5.634262,-9.35616 -0.601071,-3.35748 -0.747412,-6.69604 0.07496,-10.01258 1.575925,-3.43229 5.003122,-5.6282 7.887472,-7.92401 2.99786,-2.04978 5.88841,-4.26335 8.92955,-6.24843 2.23369,-1.67202 4.29141,-3.58029 6.36352,-5.45 2.23398,-2.24639 4.35263,-4.44084 5.67666,-7.34794 1.19029,-3.18591 2.73011,-6.22591 4.24749,-9.26489 0.85008,-1.65455 1.92315,-3.17715 2.95456,-4.72005 0,0 20.61401,-9.0465 20.61401,-9.0465 v 0 c -0.97152,1.53288 -2.05196,2.97424 -3.01822,4.51003 -1.5892,2.9226 -3.02367,5.94384 -4.31321,9.00717 -1.02209,3.20654 -2.67717,5.85404 -5.27423,8.0421 -0.88599,1.26444 -1.70083,1.81943 -2.8934,2.74905 -1.51825,1.1835 -0.70581,0.80591 -2.11758,2.20861 -0.37943,0.377 -0.81738,0.69015 -1.22607,1.03522 -1.71329,1.28145 -0.80838,0.70007 -2.71879,1.73784 -2.14093,1.46472 -4.09427,3.25187 -6.40855,4.47989 -2.82307,2.09669 -5.47375,4.41813 -8.22969,6.6024 -1.24309,2.92091 -1.16493,5.94019 -0.68887,9.04767 0.47731,2.74898 1.03098,6.13279 4.21914,6.82006 0.39503,-0.024 0.79538,-0.003 1.18507,-0.0722 0.45825,-0.0811 1.74123,-0.6192 1.34463,-0.3757 -5.96921,3.66495 -12.09816,7.0638 -18.10526,10.66632 -0.38955,0.23361 0.87179,-0.29537 1.24462,-0.55483 0.76925,-0.53534 1.17045,-1.38827 1.63814,-2.15438 1.79248,-2.50976 2.54413,-5.70061 3.57296,-8.5709 0.53211,-1.33351 0.85257,-2.72871 1.44712,-4.03652 1.86306,-4.09811 -0.574,1.53682 1.4347,-2.55473 0.24916,-0.50753 0.41738,-1.05092 0.62607,-1.57638 1.38835,-2.93078 2.80982,-5.7909 2.81845,-9.13224 0.39914,-3.72484 1.22044,-7.4247 1.17092,-11.17716 -0.0509,-3.15967 -0.11854,-6.32062 -0.0431,-9.48041 0.009,-0.37766 0.0297,-0.75523 0.0269,-1.13298 -0.003,-0.40268 -0.38904,-0.99978 -0.0439,-1.20727 14.77426,-8.88272 16.98288,-17.25951 22.58493,-8.25719 2.01332,3.24308 4.3757,6.11328 7.75429,8.0422 1.71513,0.81588 3.50239,1.7452 5.46345,1.74542 0.58229,6e-5 2.2196,-0.5494 1.73139,-0.23205 -15.64161,10.16732 -24.73376,12.80046 -16.857,10.43668 1.48787,-1.96256 0.60393,-4.67058 0.28837,-6.92746 -0.93083,-3.51183 -2.49931,-6.79611 -3.62749,-10.24193 -1.16767,-3.43275 -3.00509,-6.54431 -5.61047,-9.10125 -7.77109,-2.4512 -0.62692,0.0265 18.03648,-11.13564 0.29272,-0.17507 -0.71465,0.0125 -1.00523,0.19105 -1.23406,0.75844 -1.11853,2.55069 -1.91682,3.619 -1.0864,2.81425 -3.1509,4.83369 -4.38966,7.5578 -1.56313,2.67201 -2.607,5.52412 -3.85659,8.34657 -1.05945,3.01318 -2.07914,6.00646 -2.50793,9.19129 -0.96368,3.43402 -2.23962,6.77879 -3.44098,10.13439 -1.17498,3.77166 -2.69171,7.41567 -4.04059,11.12175 -1.05245,2.04933 -2.15388,4.31208 -2.12603,6.64983 -24.85034,14.53157 -17.92308,18.09971 -21.66444,5.93618 -1.52777,-4.02946 -3.766688,-7.78067 -4.426337,-12.1011 -0.487488,-3.58794 -0.175159,-7.22687 -0.636332,-10.82575 -0.432324,-3.2069 -1.146853,-6.35033 -2.51016,-9.30531 0,0 20.068169,-10.72936 20.068169,-10.72936 z"
     inkscape:connector-curvature="0" />
  <g
     class=""
     transform="translate(0,0)"
     id="g6"
     style="touch-action: none;">
    <path
       d="M256 37.143L77.896 343.853h356.208zM230.154 49.79L72 164.233v157.91zm51.69 0L440 322.144V164.232zm-132.516 90.02v21.786l-8.486 9.68v-16.942c-2.772 3.24-5.692 6.367-8.385 9.664 3.536.293 2.484 5.43 2.207 7.752-1.746 9.536-8.154 17.575-13.404 24.79-1.943 2.544-3.943 5.075-6.008 7.507-4.65 3.4-8.49 4.39-10.775-1.463.294-7.806 3.84-15.22 8.046-20.967l5.288-7.918c-.048 2.462.1 4.97-.072 7.405-2.34 4.347-6.766 9.46-5.758 14.608 7.76.874 12.22-10.863 14.522-16.58.832-2.76 2.108-5.458-1.418-5.434v-7.264zm212.13 1.21l44.853 54.464v7.262l-30.304-36.31v8.472l-6.06-7.262c-.155-4.15-1.424-8.377-2.425-12.103-1.86-2.936-3.96-5.704-6.06-8.47zM256.07 203.86c8.37 0 14.733 1.53 19.088 4.587 4.355 3.027 6.533 7.475 6.533 13.344 0 3.924-1.08 7.198-3.243 9.823-2.13 2.626-5.297 4.572-9.498 5.838 4.694 1.298 8.23 3.415 10.61 6.35 2.408 2.902 3.614 6.576 3.614 11.024 0 6.857-2.286 12.047-6.858 15.57-4.54 3.49-11.288 5.233-20.246 5.233-8.988 0-15.784-1.744-20.386-5.234-4.572-3.522-6.858-8.712-6.858-15.57 0-4.447 1.19-8.12 3.57-11.024 2.408-2.935 5.96-5.052 10.655-6.35-4.2-1.265-7.366-3.21-9.497-5.837-2.13-2.625-3.198-5.9-3.198-9.822 0-5.837 2.18-10.285 6.534-13.343 4.354-3.058 10.748-4.586 19.18-4.586zm0 11.212c-2.84 0-5.035.742-6.58 2.225-1.513 1.482-2.27 3.583-2.27 6.3 0 2.75.757 4.866 2.27 6.348 1.545 1.483 3.74 2.225 6.58 2.225 2.78 0 4.926-.742 6.44-2.225 1.513-1.482 2.27-3.598 2.27-6.347 0-2.75-.757-4.85-2.27-6.3-1.514-1.484-3.66-2.226-6.44-2.226zm0 28.262c-3.336 0-5.9.912-7.69 2.734-1.793 1.823-2.69 4.433-2.69 7.83 0 3.398.897 6.008 2.69 7.83 1.79 1.792 4.354 2.688 7.69 2.688 3.305 0 5.837-.896 7.598-2.687 1.76-1.824 2.64-4.434 2.64-7.832 0-3.428-.88-6.038-2.64-7.83-1.76-1.822-4.293-2.734-7.598-2.734zM88.7 359.852L256 480.912l167.3-121.06zm139.42 23.23h54.548v4.842c-14.406 5.942-21.582 12.897-27.88 25.416h-15.76c7.104-13.803 14.546-17.714 26.67-25.416h-37.58z"
       id="path4"
       fill-opacity="1"
       fill="#fff" />
  </g>
  <path
     style="fill:#ffffff"
     id="path957"
     d="m 221.75404,401.76342 c -0.53407,-2.1531 -2.00134,-3.90514 -3.1544,-5.75475 -1.09073,-1.19928 -1.78657,-2.7097 -2.86028,-3.91925 -2.60612,-2.93584 1.52338,2.08143 -1.44789,-1.58831 -1.36271,-1.3639 -2.66865,-2.6603 -3.62671,-4.35397 -4.14031,-13.12433 -1.30031,-2.38611 31.15914,-19.97038 0.3584,-0.19417 0.61945,0.53 0.93109,0.79274 0.83208,0.70152 1.69821,1.3574 2.54458,2.04164 2.72777,2.6825 5.58374,5.23245 8.45817,7.75685 2.15089,1.83546 4.2132,3.78795 6.53205,5.41205 1.34182,1.1544 2.78664,2.16074 4.16451,3.26865 1.80741,1.37572 3.27897,3.05919 4.74437,4.77879 1.26339,1.62173 2.86784,2.90555 4.29912,4.36842 0.62602,0.91819 1.39603,1.74003 2.02409,2.65568 0.55437,0.80821 0.90536,1.5703 1.66881,2.19381 11.78208,3.61435 0.91517,0.21029 -31.62506,17.05023 -0.1691,0.0875 0.15375,-0.35606 0.16802,-0.54593 0.0962,-1.27993 -0.16345,-2.70047 -0.26622,-3.97232 -0.48278,-3.47635 -0.60774,-7.00434 -1.41674,-10.42739 -0.54536,-2.37931 -1.26851,-4.7185 -1.45019,-7.15912 27.04351,-16.91045 24.9396,-25.08963 38.11904,-12.73635 2.97869,2.54594 5.35817,5.61663 7.5372,8.8475 1.99522,3.17706 4.08636,6.30063 6.313,9.32267 0.0508,0.0577 1.15934,1.45398 1.52697,1.45266 0.18857,-6.8e-4 0.40177,-0.60317 0.23538,-0.51443 -10.59269,5.64906 -21.10295,11.45172 -31.61515,17.24918 -0.16033,0.0884 0.49386,0.0674 0.5381,-0.11024 0.12617,-0.50677 -0.0812,-1.04133 -0.12177,-1.56199 -1.16791,-4.96532 -4.11504,-9.20436 -6.61269,-13.5685 -1.80132,-2.5604 -3.27945,-5.50108 -5.45215,-7.78083 -1.42429,-1.32149 -3.17755,-1.85081 -5.06182,-2.06732 -0.97662,0.0228 -1.97747,-0.16941 -2.95288,-0.0874 -1.11844,0.094 -2.22632,0.58016 -3.29965,0.87818 -10.16835,6.21192 -22.18131,12.65505 27.07885,-15.41337 0.48764,-0.27786 -0.9687,0.56994 -1.42588,0.89551 -0.98091,0.69854 -1.27469,1.05756 -2.09538,1.88149 -2.26717,2.43526 -2.59409,4.31873 -3.11926,7.46722 -0.31651,3.01946 -0.19291,6.06241 -0.15171,9.092 0.20263,0.85003 0.002,2.4731 0.78163,3.11384 0.0974,0.08 0.24542,0.0631 0.36011,0.11541 0.21152,0.0964 0.40991,0.21937 0.61486,0.32906 1.2816,0.33868 2.6475,0.55979 3.90853,-0.017 0.34907,-0.15966 1.30199,-0.81265 0.96669,-0.62577 -9.9144,5.52572 -19.8041,11.09567 -29.70615,16.64351 3.25236,-1.4749 3.39786,-4.49811 3.17184,-7.66638 -0.17679,-1.31759 -1.78911,-6.3562 -3.23153,-6.74679 -0.17218,-0.0466 -0.2634,0.24063 -0.3951,0.36094 3.54517,13.04423 -0.15595,1.62228 30.70572,-16.12095 0.33602,-0.19319 -0.54301,0.56232 -0.74343,0.89407 -0.25571,0.42327 -0.44457,0.88603 -0.61287,1.35101 -0.44248,1.22242 -0.60609,2.28291 -0.8654,3.55784 -0.32849,1.81686 -0.73811,3.61454 -1.18559,5.40495 0,0 -31.8785,15.19532 -31.8785,15.19532 v 0 c 0.50331,-1.72902 1.14014,-3.41921 1.44995,-5.19884 0.27979,-1.76796 0.43119,-3.53197 0.64222,-5.30835 0.0547,-0.46052 -0.2167,-1.12541 0.17041,-1.3808 30.81681,-20.33108 21.52975,-26.70447 32.72393,-18.08628 2.10877,2.87869 3.34528,6.25813 4.23147,9.69488 0.15482,0.73302 0.36291,1.45679 0.46445,2.19906 0.30953,2.26267 0.22882,5.48134 -0.6329,7.63553 -0.18227,0.45566 -0.50626,0.8409 -0.75939,1.26135 -9.28553,5.25608 -25.26288,23.86121 -38.77933,16.30517 -2.37566,-1.90358 -2.9972,-3.74665 -3.11742,-6.73695 0.0205,-3.16372 0.10335,-6.32621 0.18993,-9.48861 0.0392,-1.69666 0.25617,-3.28311 0.50212,-4.96046 0.0837,-0.57067 0.0887,-1.15763 0.24468,-1.71292 0.1717,-0.61139 1.04723,-2.10302 1.34138,-2.63064 0.68089,-0.99093 2.21605,-3.2795 3.21941,-3.87627 10.51343,-6.25313 21.12805,-12.33581 31.7683,-18.37062 0.47358,-0.2686 1.01913,-0.3905 1.54679,-0.52463 0.35947,-0.0914 0.73513,-0.0993 1.1027,-0.1489 2.46435,-0.36713 4.99761,-0.25848 7.40335,0.4257 2.35204,0.91155 4.56751,2.19994 6.23203,4.13234 1.85626,2.80413 3.09701,5.98776 4.71967,8.92797 2.22334,4.75802 5.27497,9.03104 7.53591,13.7713 0.0469,0.0891 1.8373,3.43936 1.7555,3.49149 -30.12772,19.20091 -25.85204,27.86405 -33.91907,14.88599 -1.8847,-3.23244 -3.86773,-6.39271 -6.02923,-9.44965 -1.99677,-2.98291 -4.36247,-5.61179 -7.10219,-7.94168 -1.20504,-0.88865 -2.39679,-1.90311 -3.84843,-2.37239 -0.93751,-0.30307 -0.90098,-0.20998 -1.73448,-0.0206 10.27513,-5.89685 20.55026,-11.7937 30.82538,-17.69056 -0.2734,-0.16165 -0.50497,-0.44612 -0.8202,-0.48497 -0.17461,-0.0215 -0.33711,0.17294 -0.4091,0.33347 -0.55386,1.23517 0.47019,3.47138 0.47535,4.75688 0.53803,3.50102 0.81347,7.03638 1.47214,10.51778 0.30218,1.25181 0.52084,2.54402 0.89761,3.77664 0.1114,0.36444 0.69882,0.88336 0.37284,1.08076 -31.79691,19.25421 -28.89206,29.89139 -32.07756,17.68089 -0.82811,-1.68773 -1.83747,-3.22993 -3.19845,-4.54947 -1.47457,-1.5029 -2.94628,-3.00476 -4.26774,-4.65019 -1.35126,-1.54117 -2.85081,-2.87609 -4.53462,-4.05236 -1.46956,-1.07735 -2.881,-2.22847 -4.22773,-3.4571 -1.94214,-1.98911 -3.84631,-4.01634 -5.84477,-5.94991 -2.68244,-2.50351 -5.47454,-5.00773 -8.64867,-6.8653 -0.2074,-0.0933 -1.55043,-0.73072 -1.92782,-0.79842 -0.15467,-0.0278 -0.35794,-0.0499 -0.46718,0.0631 -0.13038,0.13479 -0.28694,0.64231 -0.12448,0.54864 31.52834,-18.17963 38.63516,-9.19352 30.04393,-19.26641 -0.12521,-0.0442 -0.31468,-0.25057 -0.37564,-0.1326 -0.0736,0.14237 0.12576,0.29889 0.22446,0.42515 0.76324,0.97638 1.78093,1.77023 2.43062,2.84855 1.54106,1.90911 2.96735,3.88101 4.30035,5.94211 1.31252,1.93157 2.71417,3.79664 4.06624,5.69818 0,0 -31.68419,18.04048 -31.68419,18.04048 z"
     inkscape:connector-curvature="0" />
  <text
     xml:space="preserve"
     style="font-style:normal;font-variant:normal;font-weight:bold;font-stretch:normal;font-size:92.18762207px;line-height:1.25;font-family:sans-serif;-inkscape-font-specification:'sans-serif Bold';letter-spacing:0px;word-spacing:0px;fill:#000000;fill-opacity:1;stroke:none;stroke-width:0.84459412"
     x="-250.63091"
     y="-455.50467"
     id="text823-9"
     transform="scale(-1.1840006,-0.84459416)"><tspan
       sodipodi:role="line"
       id="tspan821-9"
       x="-250.63091"
       y="-455.50467"
       style="font-size:92.18762207px;stroke-width:0.84459412">6</tspan></text>
  <path
     style="fill:#ffffff"
     id="path959"
     d="m 399.66265,217.4344 c -0.52207,-2.11332 -1.41621,-4.13356 -2.40916,-6.06899 -1.67528,-3.31442 -3.59866,-6.46584 -5.92229,-9.36165 -2.26516,-3.13 -4.04719,-6.56926 -6.0926,-9.84525 -1.34795,-2.50016 -3.44091,-4.40227 -5.35636,-6.43539 -1.49071,-2.07472 -3.44293,-3.70739 -5.38441,-5.33569 -1.85231,-1.4427 -3.41167,-3.24068 -5.39505,-4.50608 -1.67796,-1.1699 -3.39931,-2.28366 -4.77053,-3.81472 -1.53919,-1.33228 -3.28104,-2.37665 -4.81187,-3.71284 -1.55488,-0.96689 -2.68047,-2.43093 -4.09027,-3.57945 -1.29267,-1.22823 -2.48715,-2.57208 -3.82302,-3.75067 -1.69189,-1.67593 -2.89623,-3.72221 -4.38997,-5.55554 -9.00468,-11.13797 -5.90547,-0.94158 30.27106,-20.23572 0.35599,-0.18986 0.40147,0.70107 0.63105,1.03284 0.23223,0.33558 0.50146,0.644 0.75219,0.96601 2.88306,3.21696 5.75458,6.44338 8.72559,9.57965 2.9491,2.90309 6.00544,5.68882 9.0462,8.49368 2.74379,2.42056 4.97571,5.34445 7.56073,7.92712 2.44592,2.3751 4.45797,5.13671 6.68202,7.70942 1.95933,1.80654 3.72011,3.80542 5.41782,5.85426 1.37722,1.7853 2.91027,3.42278 4.47701,5.04028 9.90137,9.38152 -11.25843,9.10346 -30.67611,19.58247 -0.38157,0.20592 -0.42635,-0.75557 -0.65855,-1.12174 -0.67226,-1.06019 -1.40486,-2.08089 -2.10692,-3.12158 -3.91068,-5.62627 -8.94349,-10.31294 -13.67878,-15.22468 -2.13915,-2.2574 -4.50215,-4.29088 -6.69304,-6.49473 -1.7935,-1.80412 -3.45295,-3.74729 -5.18352,-5.61129 -2.31881,-2.50621 -4.8891,-4.75308 -7.29627,-7.16934 -0.84667,-1.35896 -2.18552,-2.32875 -3.13733,-3.59168 -0.57561,-0.76376 -0.77443,-1.27433 -1.18996,-2.12591 -0.77052,-1.72269 -1.78372,-3.37797 -2.96967,-4.84979 -9.38876,-13.70737 -13.76104,1.95822 28.29332,-22.65014 2.84587,3.80889 6.56349,6.85969 10.12708,9.96786 4.02772,3.24712 8.17795,6.40822 11.65687,10.25602 2.57837,2.70086 4.92937,5.601 7.30117,8.48081 1.84347,2.29255 3.48972,4.75159 4.89432,7.33652 1.14767,2.21098 2.47053,4.28105 4.04054,6.21023 1.55413,2.24795 2.90742,4.61401 4.4802,6.85217 1.32474,1.74062 2.74868,3.41371 4.17296,5.07763 0.63653,0.72555 1.29333,1.43271 1.93921,2.14989 0,0 -30.98017,18.5101 -30.98017,18.5101 v 0 c -0.52188,-0.77808 -1.16755,-1.43052 -1.78324,-2.13596 -1.44041,-1.74338 -2.69965,-3.61533 -3.96529,-5.48787 -1.62646,-2.15943 -2.90095,-4.55337 -4.57516,-6.68125 -1.57468,-2.14853 -3.09135,-4.32739 -4.24387,-6.74286 -1.31129,-2.38358 -2.73315,-4.71287 -4.27553,-6.95611 -2.28579,-2.87034 -4.54614,-5.75678 -6.9731,-8.51071 -3.20734,-3.75952 -6.80429,-7.14707 -10.60232,-10.3064 -2.97413,-2.43594 -1.83127,-1.54781 -4.90215,-3.87084 -1.79752,-1.35977 -3.68903,-2.93586 -5.72818,-3.9413 -0.3505,-0.17282 -0.74427,-0.23861 -1.1164,-0.35791 10.28866,-6.32732 20.6211,-12.58401 30.866,-18.98195 0.11057,-0.0691 -0.38913,-0.18212 -0.38767,-0.0518 0.003,0.26057 0.24482,0.46164 0.39466,0.67484 0.65212,0.92788 1.41497,1.78589 2.07356,2.71034 1.42812,1.6504 2.64656,3.44219 3.43087,5.49771 1.01053,1.81881 2.33504,3.40969 3.65955,5.01009 2.18252,2.60491 4.55269,5.04305 6.65124,7.72028 3.36963,4.37944 7.07684,8.46194 10.85339,12.49295 4.75178,5.0575 9.48757,10.12973 14.69649,14.73133 0.43972,0.37491 2.2662,1.98377 2.94214,2.40113 0.21027,0.12983 0.90722,0.11562 0.69862,0.2481 -10.23227,6.49846 -20.70558,12.60991 -31.00593,18.99991 -0.10845,0.0673 1.1935,0.24907 0.1021,-0.36903 -1.29327,-1.82776 -3.01519,-3.34441 -4.25235,-5.22589 -1.67331,-2.03714 -3.48718,-3.95217 -5.16272,-5.98725 -2.08464,-2.59407 -4.08395,-5.26545 -6.44027,-7.62565 -2.34591,-2.69923 -4.85808,-5.2498 -7.41177,-7.75096 -2.99461,-2.88249 -5.76721,-5.98436 -8.69457,-8.93495 -2.98695,-3.13232 -5.97112,-6.3041 -9.46327,-8.88588 -0.37851,-0.26695 -0.72789,-0.58095 -1.13554,-0.80087 -0.16289,-0.0879 -0.70294,-0.009 -0.54507,-0.1058 10.35754,-6.33822 20.93287,-12.31702 31.26659,-18.694 0.15557,-0.096 -0.25621,-0.35491 -0.43742,-0.33079 -0.37115,0.0494 0.83896,1.41878 0.40081,1.04933 1.27305,1.70871 2.33511,3.60638 4.02196,4.96041 1.39368,1.19701 2.75685,2.44422 4.06125,3.73727 1.23203,1.27092 2.55351,2.40891 3.94393,3.50248 1.608,1.341 3.30589,2.56932 4.88798,3.94107 1.45087,1.16908 2.90099,2.34046 4.3876,3.46275 1.8753,1.53451 3.62524,3.2025 5.43129,4.81687 1.99779,1.77107 3.97678,3.56234 5.68167,5.62715 2.01052,2.21837 3.78326,4.69974 5.18508,7.34201 1.94809,3.2209 3.66698,6.59356 6.02374,9.54664 2.14004,3.17746 4.25178,6.36903 6.25222,9.63801 1.24293,1.96979 2.54018,3.89385 3.50499,6.02037 0,0 -31.7694,17.74086 -31.7694,17.74086 z"
     inkscape:connector-curvature="0" />
  <path
     style="fill:#ffffff"
     id="path963"
     d="m 263.26489,283.14629 c -1.69628,-3.37427 -3.77432,-6.55177 -5.49133,-9.92556 -3.13713,-7.2987 -6.56283,-14.46327 -9.99141,-21.62756 -3.88521,-7.37574 -8.19931,-14.51141 -12.28156,-21.77752 -2.9255,-4.7979 -5.58364,-9.74769 -8.42123,-14.59715 -0.6034,-0.9596 -1.06463,-2.00094 -1.65028,-2.97049 -0.22566,-0.37358 -0.94096,-1.44113 -1.12746,-1.41929 -0.17512,0.0205 -0.20324,0.60767 -0.0465,0.52689 10.77147,-5.5519 21.40477,-11.36785 32.10716,-17.05178 -0.18506,-0.1287 -0.35934,-0.49772 -0.55518,-0.38611 -0.22098,0.12594 -0.0793,0.50319 -0.0956,0.75701 -0.13616,2.12055 0.44935,4.19859 0.85526,6.25991 1.47226,7.4325 2.73012,14.9061 4.41626,22.29437 1.13622,4.88182 2.72029,9.64779 3.60046,14.58817 0.35391,1.98648 0.66779,4.42727 0.94185,6.43072 0.68917,6.31045 1.2062,12.63298 1.9796,18.93535 0.60037,4.42576 1.40145,8.8205 2.05741,13.23751 3.47028,12.81412 1.30633,3.394 -31.53575,19.16383 -0.7553,0.36267 -0.96985,-1.3682 -1.40575,-2.08376 -1.87373,-3.07587 -3.26655,-6.41309 -4.69929,-9.70463 -4.96896,-10.77857 -10.1392,-21.46587 -15.17961,-32.21268 -3.84195,-8.00455 -7.73993,-15.98305 -11.50442,-24.02445 -1.51399,-3.32853 -2.82609,-6.70734 -3.25784,-10.34681 10.8044,-5.73672 21.27993,-12.1411 32.4132,-17.21015 0.73137,-0.333 1.17179,1.10003 1.75458,1.65332 1.29729,1.2316 3.71735,3.52595 4.84011,4.75277 1.56079,1.70545 4.83456,5.75874 6.23305,7.46704 5.02204,6.46289 10.33677,12.72268 15.10025,19.38428 1.01103,1.4139 6.60448,9.75316 7.57797,11.20065 5.71964,9.73418 11.41426,19.4638 17.89068,28.71971 2.98503,3.67972 5.60338,8.20768 9.91179,10.49511 9.42535,-8.26012 1.03207,-0.81608 -30.24106,15.85737 -0.36789,0.19614 0.88183,-0.21434 1.12015,-0.55641 0.42174,-0.60535 0.58,-1.3679 0.72453,-2.09138 0.49492,-2.47748 0.26425,-4.54276 0.19116,-7.08015 -0.20966,-1.64322 -0.36295,-3.29462 -0.629,-4.92965 -0.63471,-3.90059 -1.63651,-8.18718 -2.55426,-12.01288 -1.67603,-6.98662 -3.56187,-13.8945 -5.57678,-20.78973 -3.21584,-9.90362 -7.22429,-19.51759 -10.80787,-29.28723 -0.85917,-2.29119 -1.44887,-4.66362 -2.03777,-7.03337 -0.10944,-0.44036 -0.20788,-0.88373 -0.33251,-1.32003 -0.0796,-0.27874 -0.53258,-0.68155 -0.27979,-0.82343 10.60135,-5.94964 21.47584,-11.39894 32.21376,-17.09841 0.2722,0.73117 0.58132,1.44963 0.8166,2.19349 0.88424,2.79563 1.60406,5.64085 2.36426,8.47272 1.92164,7.15838 3.71279,14.34051 5.41355,21.55416 2.75754,11.63276 5.08466,23.35429 7.30083,35.09935 0.60528,2.02156 0.39354,4.31507 1.14277,6.30871 0.20034,0.53307 1.26526,1.27315 0.75763,1.53124 -33.40574,16.98425 -30.35026,26.54011 -33.61863,12.45937 -1.66208,-10.47716 -4.56945,-20.6771 -7.67188,-30.80112 -2.79034,-7.31073 -5.33906,-14.7232 -8.27097,-21.97997 -0.30627,-0.75806 -3.39319,-7.94856 -3.77839,-8.84714 -2.30381,-5.09094 -4.99567,-9.99198 -7.45064,-15.00901 -6.2693,-16.24514 -3.43473,-5.20049 29.87189,-23.4277 0.27675,0.36256 0.55745,0.72213 0.83023,1.08768 0.69838,0.93592 1.3994,1.82384 2.27132,2.61119 1.76713,1.59573 -0.24699,-0.51944 1.62517,1.54183 2.275,1.86202 3.51597,4.64243 4.84806,7.19245 2.7261,5.01847 4.11393,10.60537 6.03991,15.95514 1.02745,3.30651 3.24588,6.99258 2.89089,10.57617 -0.0546,0.55115 -0.239,1.08159 -0.3585,1.62239 -6.70676,12.11796 -0.7528,1.94193 -32.53961,19.91301 -0.50667,0.28646 -1.1318,0.27341 -1.69202,0.43128 -0.59672,0.16816 -1.20113,0.31885 -1.77778,0.54651 -0.44412,0.17533 -2.87266,1.43086 -3.30012,1.64957 -2.23502,1.13949 -4.5157,2.11536 -6.90527,2.87235 0,0 27.57476,-21.60567 27.57476,-21.60567 v 0 c 2.31192,-1.02961 4.58454,-2.1402 6.88936,-3.18536 1.73474,-0.73092 3.5586,-1.27077 5.26996,-2.05081 0.55373,-0.2524 2.13927,-1.16015 1.61558,-0.85019 -29.08686,17.21564 -39.98244,19.36597 -27.7348,16.79128 0.31485,-0.21044 0.68331,-0.35716 0.94456,-0.63133 1.97502,-2.07263 -0.29219,-7.32955 -0.70809,-9.62802 -1.65469,-5.18138 -3.6409,-10.27068 -6.66816,-14.82602 -1.42553,-2.24216 -3.06335,-4.32277 -5.03917,-6.11162 -0.58449,-0.58719 -3.17227,-3.32702 -3.8182,-3.40289 -0.13313,-0.0156 -0.19535,0.18361 -0.29303,0.27542 10.48738,-5.91325 21.16413,-11.50256 31.46214,-17.73976 0.33023,-0.20001 -0.45355,-0.69027 -0.81674,-0.82124 -0.85752,-0.30923 0.44205,3.94175 0.40569,4.05822 1.44399,5.48514 3.45359,10.81832 5.16111,16.22285 3.74267,10.52366 7.1083,21.17957 10.76793,31.7326 2.05603,5.78141 3.99894,11.59628 6.10699,17.35891 1.27027,3.47247 1.87582,5.33643 3.38059,8.60844 0.43046,0.93603 0.93722,1.83505 1.40584,2.75258 8.2399,11.09975 0.54937,-0.22367 -30.89916,17.98749 -0.5087,0.29458 0.78048,1.21369 1.36102,1.12141 0.48971,-0.0778 0.35894,-0.92834 0.46781,-1.41209 0.16886,-0.75033 0.29349,-1.51261 0.36278,-2.27858 0.0944,-1.04319 0.0849,-2.09319 0.1274,-3.13978 0.26683,-12.20993 -0.75413,-24.45542 -3.75847,-36.32381 -2.14587,-7.10265 -2.08485,-7.651 -4.94931,-14.30726 -1.80474,-4.19372 -3.86226,-8.80711 -7.10681,-12.14102 -0.29428,-0.30238 -0.70359,-0.46593 -1.05539,-0.6989 10.42619,-5.94845 20.85296,-11.8959 31.27857,-17.84536 0.19465,-0.11108 -0.46117,0.14384 -0.58565,0.3302 -0.22707,0.33996 -0.34457,0.75283 -0.40755,1.15678 -0.37367,2.39664 0.37661,4.83338 0.57513,7.19886 1.86368,10.44437 4.86788,20.63991 7.80652,30.82253 3.76592,12.29271 7.62335,24.55646 11.55573,36.79622 0.78402,3.21059 1.44639,6.30817 1.77533,9.59601 0.0739,0.73845 0.82091,1.82945 0.18885,2.21838 -31.08491,19.12788 -23.14688,25.54844 -33.34395,16.48872 -3.46159,-3.8305 -6.22057,-8.131 -8.51589,-12.75949 -5.11768,-9.99548 -9.9955,-20.12652 -15.90725,-29.69267 -1.23488,-1.84598 -2.42161,-3.72509 -3.70464,-5.53794 -6.00271,-8.48148 -12.65487,-16.51542 -19.9399,-23.92365 -3.20263,-3.15693 -6.22546,-6.25939 -10.14915,-8.52718 -0.83175,-0.48072 -1.67741,-0.96092 -2.58676,-1.27075 -0.5631,-0.19185 -1.18116,-0.14283 -1.77174,-0.21424 10.11227,-5.84433 20.22455,-11.68866 30.33682,-17.53299 -0.3543,-0.17273 -0.67423,-0.58373 -1.0629,-0.51818 -0.27409,0.0462 -0.29285,0.48469 -0.35066,0.75657 -0.51086,2.40256 0.7619,5.29296 1.12506,7.61694 2.48356,8.55597 5.58092,16.95015 9.09601,25.13194 2.48348,5.71077 4.99016,11.41737 7.95591,16.90053 1.14941,2.12505 4.58364,7.87685 5.89339,10.05947 0.85297,1.42144 1.71656,2.83648 2.57484,4.25472 1.27095,1.8609 2.78396,4.29304 4.40603,5.95602 0.5395,0.55311 1.11432,1.10804 1.80513,1.45413 0.2412,0.12083 1.02583,-0.29113 0.79502,-0.15147 -29.98013,18.14039 -42.2124,20.66842 -29.78524,18.00869 0.72509,-4.4808 -0.15273,-9.10099 -0.43943,-13.58358 -0.79188,-6.29552 -1.47542,-12.60204 -1.98291,-18.92679 -0.82241,-7.12907 -1.76222,-14.23864 -3.37678,-21.24245 -1.72122,-7.16973 -3.51256,-14.33186 -6.16984,-21.22506 -2.55018,-7.33823 1.11908,3.12698 -1.36968,-3.68406 -0.40579,-1.11054 -0.63957,-2.29282 -1.04981,-3.39748 -0.17141,-0.46154 -0.38833,-0.90487 -0.5825,-1.35731 37.45957,-20.12646 27.65597,-27.52546 34.72291,-11.2815 2.09136,5.19177 4.40798,10.28916 6.9994,15.25257 3.85276,7.43443 7.8647,14.78223 11.76995,22.18817 3.63121,6.94039 7.32506,13.8582 11.179,20.67435 2.0958,3.0479 4.30472,6.07133 7.06854,8.55257 0,0 -31.31835,18.58586 -31.31835,18.58586 z"
     inkscape:connector-curvature="0" />
  <text
     xml:space="preserve"
     style="font-style:normal;font-variant:normal;font-weight:bold;font-stretch:normal;font-size:117.33332825px;line-height:1.25;font-family:sans-serif;-inkscape-font-specification:'sans-serif Bold';letter-spacing:0px;word-spacing:0px;fill:#000000;fill-opacity:1;stroke:none"
     x="214.54131"
     y="274.06876"
     id="text823"
     inkscape:transform-center-x="-13.016949"
     inkscape:transform-center-y="1.0847458"><tspan
       sodipodi:role="line"
       id="tspan821"
       x="214.54131"
       y="274.06876">1</tspan></text>
  <text
     xml:space="preserve"
     style="font-style:normal;font-variant:normal;font-weight:bold;font-stretch:normal;font-size:94.45800018px;line-height:1.25;font-family:sans-serif;-inkscape-font-specification:'sans-serif Bold';letter-spacing:0px;word-spacing:0px;fill:#000000;fill-opacity:1;stroke:none;stroke-width:0.98393756"
     x="207.29286"
     y="-108.40239"
     id="text823-2"
     transform="matrix(-0.00181658,1.1780367,-0.85000682,0.73722571,0,0)"
     inkscape:transform-center-x="9.9207865"
     inkscape:transform-center-y="-17.194439"><tspan
       sodipodi:role="line"
       id="tspan821-4"
       x="207.29286"
       y="-108.40239"
       style="stroke-width:0.98393756">4</tspan></text>
  <text
     xml:space="preserve"
     style="font-style:normal;font-variant:normal;font-weight:bold;font-stretch:normal;font-size:86.58071136px;line-height:1.25;font-family:sans-serif;-inkscape-font-specification:'sans-serif Bold';letter-spacing:0px;word-spacing:0px;fill:#000000;fill-opacity:1;stroke:none;stroke-width:0.90188247"
     x="168.59985"
     y="544.22357"
     id="text823-2-2"
     transform="matrix(0.00400084,-1.2944944,0.76985934,0.85517046,0,0)"
     inkscape:transform-center-x="-8.1886553"
     inkscape:transform-center-y="35.205368"><tspan
       sodipodi:role="line"
       id="tspan821-4-2"
       x="168.59985"
       y="544.22357"
       style="stroke-width:0.90188247">8</tspan></text>
</svg>
